<svg id="Layer_1" data-name="Layer 1" xmlns="http://www.w3.org/2000/svg" viewBox="0 0 1200 630">
  <title>bokobuva-og-image</title>
  <path d="M523.93,545.05q-45.28,0-81.25-21.18a155,155,0,0,1-56.88-57.75q-20.91-36.58-21.49-82.42V119q0-13.34,8.41-21.47t21.19-8.13q13.36,0,21.49,8.13T423.51,119V275.73a149.37,149.37,0,0,1,49.05-38.6q28.76-14.2,63-14.22,42.35,0,76,21.19t53.12,57.46q19.42,36.27,19.43,82.14T663,466.12a157.4,157.4,0,0,1-57.17,57.75Q569.78,545.07,523.93,545.05Zm0-52.23q29.6,0,52.82-14.23a102.68,102.68,0,0,0,36.86-39.18q13.64-24.95,13.64-55.71,0-31.35-13.64-55.73a103.88,103.88,0,0,0-36.86-38.6q-23.22-14.21-52.82-14.22-29,0-52.52,14.22A100.78,100.78,0,0,0,434.55,328q-13.37,24.36-13.36,55.73,0,30.76,13.36,55.71a99.69,99.69,0,0,0,36.86,39.18Q494.92,492.84,523.93,492.82Z" fill="#242526"/>
  <rect x="778.81" y="49.49" width="56.88" height="531.01" fill="#ed4437"/>
</svg>
