<svg id="Layer_1" data-name="Layer 1" xmlns="http://www.w3.org/2000/svg" viewBox="0 0 16 16">
  <title>bokobuva_favicon</title>
  <path d="M6.61,14.93a4.69,4.69,0,0,1-2.45-.64,4.56,4.56,0,0,1-1.72-1.74,5,5,0,0,1-.64-2.48v-8a.84.84,0,0,1,.25-.64.86.86,0,0,1,.64-.25.87.87,0,0,1,.65.25.88.88,0,0,1,.24.64V6.82A4.57,4.57,0,0,1,5.06,5.65,4.3,4.3,0,0,1,7,5.23a4.26,4.26,0,0,1,2.29.63,4.63,4.63,0,0,1,1.6,1.74,5.12,5.12,0,0,1,.58,2.47,4.89,4.89,0,0,1-.63,2.48,4.74,4.74,0,0,1-4.19,2.38Zm0-1.57a3,3,0,0,0,1.59-.43,3.23,3.23,0,0,0,1.11-1.18,3.48,3.48,0,0,0,.41-1.68,3.43,3.43,0,0,0-.41-1.68A3.17,3.17,0,0,0,8.2,7.23,3,3,0,0,0,6.61,6.8,3,3,0,0,0,5,7.23,3,3,0,0,0,3.91,8.39a3.42,3.42,0,0,0-.4,1.68,3.48,3.48,0,0,0,.4,1.68A3.08,3.08,0,0,0,5,12.93,3,3,0,0,0,6.61,13.36Z" fill="#242526"/>
  <rect x="13" width="1.2" height="16" fill="#ed4437"/>
</svg>
